<mxfile host="app.diagrams.net" modified="2021-02-26T05:37:00.295Z" agent="5.0 (Macintosh; Intel Mac OS X 11_0_0) AppleWebKit/537.36 (KHTML, like Gecko) Chrome/88.0.4324.182 Safari/537.36" etag="r-HTGMCn7yMIxp48lpil" version="14.4.2" type="github">
  <diagram id="FwPwnj9V-WOvvup5iDUx" name="第 1 页">
    <mxGraphModel dx="1186" dy="569" grid="0" gridSize="10" guides="1" tooltips="1" connect="1" arrows="1" fold="1" page="1" pageScale="1" pageWidth="827" pageHeight="1169" math="0" shadow="0">
      <root>
        <mxCell id="0" />
        <mxCell id="1" parent="0" />
        <mxCell id="LwL3AwgZfpysOOeZVCgY-1" value="" style="rounded=1;whiteSpace=wrap;html=1;" vertex="1" parent="1">
          <mxGeometry x="296" y="214" width="180" height="60" as="geometry" />
        </mxCell>
        <mxCell id="LwL3AwgZfpysOOeZVCgY-5" value="" style="endArrow=none;html=1;exitX=0.25;exitY=1;exitDx=0;exitDy=0;entryX=0.25;entryY=0;entryDx=0;entryDy=0;" edge="1" parent="1" source="LwL3AwgZfpysOOeZVCgY-1" target="LwL3AwgZfpysOOeZVCgY-1">
          <mxGeometry width="50" height="50" relative="1" as="geometry">
            <mxPoint x="306" y="264" as="sourcePoint" />
            <mxPoint x="356" y="214" as="targetPoint" />
          </mxGeometry>
        </mxCell>
        <mxCell id="LwL3AwgZfpysOOeZVCgY-6" value="" style="endArrow=none;html=1;exitX=0.25;exitY=1;exitDx=0;exitDy=0;entryX=0.25;entryY=0;entryDx=0;entryDy=0;" edge="1" parent="1">
          <mxGeometry width="50" height="50" relative="1" as="geometry">
            <mxPoint x="385.5" y="274" as="sourcePoint" />
            <mxPoint x="385.5" y="214" as="targetPoint" />
          </mxGeometry>
        </mxCell>
        <mxCell id="LwL3AwgZfpysOOeZVCgY-7" value="" style="endArrow=none;html=1;exitX=0.25;exitY=1;exitDx=0;exitDy=0;entryX=0.25;entryY=0;entryDx=0;entryDy=0;" edge="1" parent="1">
          <mxGeometry width="50" height="50" relative="1" as="geometry">
            <mxPoint x="426" y="274" as="sourcePoint" />
            <mxPoint x="426" y="214" as="targetPoint" />
          </mxGeometry>
        </mxCell>
        <mxCell id="LwL3AwgZfpysOOeZVCgY-11" value="查询延迟消息任务,投递至MQ" style="endArrow=classic;html=1;" edge="1" parent="1">
          <mxGeometry width="50" height="50" relative="1" as="geometry">
            <mxPoint x="446" y="274" as="sourcePoint" />
            <mxPoint x="446" y="374" as="targetPoint" />
          </mxGeometry>
        </mxCell>
        <mxCell id="LwL3AwgZfpysOOeZVCgY-27" style="edgeStyle=orthogonalEdgeStyle;rounded=0;orthogonalLoop=1;jettySize=auto;html=1;exitX=0.75;exitY=1;exitDx=0;exitDy=0;entryX=0;entryY=0;entryDx=0;entryDy=0;" edge="1" parent="1" source="LwL3AwgZfpysOOeZVCgY-12" target="LwL3AwgZfpysOOeZVCgY-19">
          <mxGeometry relative="1" as="geometry" />
        </mxCell>
        <mxCell id="LwL3AwgZfpysOOeZVCgY-28" value="拉取消息进行消费" style="edgeLabel;html=1;align=center;verticalAlign=middle;resizable=0;points=[];" vertex="1" connectable="0" parent="LwL3AwgZfpysOOeZVCgY-27">
          <mxGeometry y="-1" relative="1" as="geometry">
            <mxPoint as="offset" />
          </mxGeometry>
        </mxCell>
        <mxCell id="LwL3AwgZfpysOOeZVCgY-12" value="" style="rounded=1;whiteSpace=wrap;html=1;" vertex="1" parent="1">
          <mxGeometry x="424" y="377" width="200" height="60" as="geometry" />
        </mxCell>
        <mxCell id="LwL3AwgZfpysOOeZVCgY-13" value="" style="endArrow=none;html=1;exitX=0.25;exitY=1;exitDx=0;exitDy=0;entryX=0.25;entryY=0;entryDx=0;entryDy=0;" edge="1" parent="1">
          <mxGeometry width="50" height="50" relative="1" as="geometry">
            <mxPoint x="466" y="438" as="sourcePoint" />
            <mxPoint x="466" y="378" as="targetPoint" />
          </mxGeometry>
        </mxCell>
        <mxCell id="LwL3AwgZfpysOOeZVCgY-14" value="" style="endArrow=none;html=1;exitX=0.25;exitY=1;exitDx=0;exitDy=0;entryX=0.25;entryY=0;entryDx=0;entryDy=0;" edge="1" parent="1">
          <mxGeometry width="50" height="50" relative="1" as="geometry">
            <mxPoint x="505" y="438" as="sourcePoint" />
            <mxPoint x="505" y="378" as="targetPoint" />
          </mxGeometry>
        </mxCell>
        <mxCell id="LwL3AwgZfpysOOeZVCgY-15" value="" style="endArrow=none;html=1;exitX=0.25;exitY=1;exitDx=0;exitDy=0;entryX=0.25;entryY=0;entryDx=0;entryDy=0;" edge="1" parent="1">
          <mxGeometry width="50" height="50" relative="1" as="geometry">
            <mxPoint x="544" y="438" as="sourcePoint" />
            <mxPoint x="544" y="378" as="targetPoint" />
          </mxGeometry>
        </mxCell>
        <mxCell id="LwL3AwgZfpysOOeZVCgY-16" value="" style="endArrow=none;html=1;exitX=0.25;exitY=1;exitDx=0;exitDy=0;entryX=0.25;entryY=0;entryDx=0;entryDy=0;" edge="1" parent="1">
          <mxGeometry width="50" height="50" relative="1" as="geometry">
            <mxPoint x="585" y="438" as="sourcePoint" />
            <mxPoint x="585" y="378" as="targetPoint" />
          </mxGeometry>
        </mxCell>
        <mxCell id="LwL3AwgZfpysOOeZVCgY-17" value="DB" style="text;html=1;strokeColor=none;fillColor=none;align=center;verticalAlign=middle;whiteSpace=wrap;rounded=0;" vertex="1" parent="1">
          <mxGeometry x="308" y="282" width="40" height="20" as="geometry" />
        </mxCell>
        <mxCell id="LwL3AwgZfpysOOeZVCgY-18" value="MQ" style="text;html=1;strokeColor=none;fillColor=none;align=center;verticalAlign=middle;whiteSpace=wrap;rounded=0;" vertex="1" parent="1">
          <mxGeometry x="406" y="450" width="40" height="20" as="geometry" />
        </mxCell>
        <mxCell id="LwL3AwgZfpysOOeZVCgY-19" value="消费者" style="rounded=1;whiteSpace=wrap;html=1;" vertex="1" parent="1">
          <mxGeometry x="574" y="525" width="120" height="60" as="geometry" />
        </mxCell>
        <mxCell id="LwL3AwgZfpysOOeZVCgY-22" style="edgeStyle=orthogonalEdgeStyle;rounded=0;orthogonalLoop=1;jettySize=auto;html=1;exitX=1;exitY=0.5;exitDx=0;exitDy=0;" edge="1" parent="1" source="LwL3AwgZfpysOOeZVCgY-20" target="LwL3AwgZfpysOOeZVCgY-1">
          <mxGeometry relative="1" as="geometry" />
        </mxCell>
        <mxCell id="LwL3AwgZfpysOOeZVCgY-26" value="撤销延迟消息任务" style="edgeLabel;html=1;align=center;verticalAlign=middle;resizable=0;points=[];" vertex="1" connectable="0" parent="LwL3AwgZfpysOOeZVCgY-22">
          <mxGeometry x="0.0761" y="2" relative="1" as="geometry">
            <mxPoint as="offset" />
          </mxGeometry>
        </mxCell>
        <mxCell id="LwL3AwgZfpysOOeZVCgY-24" style="edgeStyle=orthogonalEdgeStyle;rounded=0;orthogonalLoop=1;jettySize=auto;html=1;exitX=0.5;exitY=1;exitDx=0;exitDy=0;entryX=0;entryY=0;entryDx=0;entryDy=0;" edge="1" parent="1" source="LwL3AwgZfpysOOeZVCgY-20" target="LwL3AwgZfpysOOeZVCgY-1">
          <mxGeometry relative="1" as="geometry" />
        </mxCell>
        <mxCell id="LwL3AwgZfpysOOeZVCgY-25" value="插入延迟消息任务" style="edgeLabel;html=1;align=center;verticalAlign=middle;resizable=0;points=[];" vertex="1" connectable="0" parent="LwL3AwgZfpysOOeZVCgY-24">
          <mxGeometry x="0.3523" relative="1" as="geometry">
            <mxPoint as="offset" />
          </mxGeometry>
        </mxCell>
        <mxCell id="LwL3AwgZfpysOOeZVCgY-20" value="生产者" style="rounded=1;whiteSpace=wrap;html=1;" vertex="1" parent="1">
          <mxGeometry x="236" y="30" width="120" height="60" as="geometry" />
        </mxCell>
      </root>
    </mxGraphModel>
  </diagram>
</mxfile>
